<svg xmlns="http://www.w3.org/2000/svg" viewBox="0 0 800 500" role="img" aria-labelledby="t d">
  <title id="t">Curso fundamentos de programacion</title>
  <desc id="d">Editor de codigo, diagrama de flujo y depuracion como simbolos de programacion basica.</desc>
  <rect width="800" height="500" fill="#06080f"/>

  <circle cx="120" cy="70" r="110" fill="#2b8bff" opacity="0.18"/>
  <circle cx="700" cy="430" r="140" fill="#ff3f69" opacity="0.18"/>

  <rect x="78" y="92" width="390" height="290" rx="20" fill="#0d1423" stroke="#3a9aff" stroke-width="3"/>
  <rect x="78" y="92" width="390" height="36" rx="20" fill="#101a2c"/>
  <circle cx="103" cy="110" r="6" fill="#ff5a7f"/>
  <circle cx="123" cy="110" r="6" fill="#65b2ff"/>
  <circle cx="143" cy="110" r="6" fill="#ff9ab2"/>

  <g stroke-linecap="round" stroke-width="5">
    <path d="M125 168H270" stroke="#8ecbff"/>
    <path d="M125 202H305" stroke="#ff8aa8"/>
    <path d="M125 236H255" stroke="#8ecbff"/>
    <path d="M125 270H330" stroke="#65b2ff"/>
    <path d="M125 304H220" stroke="#ff8aa8"/>
  </g>

  <g fill="none" stroke="#9bd0ff" stroke-width="4" stroke-linecap="round" stroke-linejoin="round">
    <path d="M520 145H700"/>
    <path d="M520 225H700"/>
    <path d="M610 145V120"/>
    <path d="M610 225V250"/>
    <rect x="560" y="165" width="100" height="40" rx="10" stroke="#ff87a4"/>
    <path d="M610 205V225"/>
  </g>

  <g fill="#f0f8ff" opacity="0.95" font-family="Consolas, monospace" font-size="34" font-weight="700">
    <text x="338" y="420">&lt;/&gt;</text>
  </g>

  <g fill="none" stroke="#ff87a4" stroke-width="4" stroke-linecap="round">
    <circle cx="690" cy="120" r="24"/>
    <path d="M706 136L726 156"/>
  </g>

  <rect x="68" y="82" width="410" height="310" rx="24" fill="none" stroke="#2f93ff" stroke-width="2" opacity="0.6"/>
</svg>
