<svg xmlns="http://www.w3.org/2000/svg" width="1200" height="700" viewBox="0 0 1200 700" role="img" aria-label="Curso Estadistica 2">
  <defs>
    <linearGradient id="bg" x1="0" y1="0" x2="1" y2="1">
      <stop offset="0%" stop-color="#102232"/>
      <stop offset="55%" stop-color="#153f55"/>
      <stop offset="100%" stop-color="#1a6b6f"/>
    </linearGradient>
    <linearGradient id="card" x1="0" y1="0" x2="1" y2="0">
      <stop offset="0%" stop-color="#2a7f88"/>
      <stop offset="100%" stop-color="#4ca6a8"/>
    </linearGradient>
    <pattern id="grid" width="36" height="36" patternUnits="userSpaceOnUse">
      <path d="M36 0H0V36" fill="none" stroke="rgba(255,255,255,0.09)" stroke-width="1"/>
    </pattern>
    <filter id="blur" x="-20%" y="-20%" width="140%" height="140%">
      <feGaussianBlur stdDeviation="24"/>
    </filter>
  </defs>

  <rect width="1200" height="700" fill="url(#bg)"/>
  <rect width="1200" height="700" fill="url(#grid)" opacity="0.28"/>

  <ellipse cx="180" cy="120" rx="230" ry="130" fill="#62b8c8" opacity="0.2" filter="url(#blur)"/>
  <ellipse cx="1010" cy="560" rx="280" ry="150" fill="#5ea39b" opacity="0.22" filter="url(#blur)"/>

  <rect x="86" y="98" width="660" height="420" rx="24" fill="rgba(8,16,28,0.58)" stroke="rgba(255,255,255,0.24)" stroke-width="2"/>
  <rect x="108" y="128" width="332" height="96" rx="16" fill="url(#card)"/>

  <text x="134" y="192" fill="#e9f6fb" font-family="Sora, Segoe UI, Arial, sans-serif" font-size="52" font-weight="800">Estadistica 2</text>

  <path d="M120 430 C200 390 270 310 350 330 C420 348 470 430 570 390 C630 365 675 312 726 260" fill="none" stroke="rgba(184,230,239,0.94)" stroke-width="8"/>
  <circle cx="200" cy="388" r="8" fill="#ddf6ff"/>
  <circle cx="350" cy="330" r="8" fill="#ddf6ff"/>
  <circle cx="570" cy="390" r="8" fill="#ddf6ff"/>
  <circle cx="726" cy="260" r="8" fill="#ddf6ff"/>

  <g transform="translate(760 178)">
    <rect x="0" y="0" width="350" height="300" rx="20" fill="rgba(8,16,28,0.5)" stroke="rgba(210,240,246,0.34)" stroke-width="2"/>
    <line x1="40" y1="248" x2="316" y2="248" stroke="rgba(210,240,246,0.6)" stroke-width="2"/>
    <line x1="40" y1="248" x2="40" y2="58" stroke="rgba(210,240,246,0.6)" stroke-width="2"/>

    <rect x="62" y="208" width="26" height="40" fill="#8ed2cf"/>
    <rect x="102" y="176" width="26" height="72" fill="#7bc7bf"/>
    <rect x="142" y="145" width="26" height="103" fill="#6fbcb3"/>
    <rect x="182" y="162" width="26" height="86" fill="#60aea8"/>
    <rect x="222" y="194" width="26" height="54" fill="#55a19c"/>
    <rect x="262" y="216" width="26" height="32" fill="#4b9594"/>

    <path d="M58 220 C96 150 130 120 168 118 C205 117 236 142 286 208" fill="none" stroke="#e8fbff" stroke-width="3"/>
  </g>
</svg>
