<svg xmlns="http://www.w3.org/2000/svg" viewBox="0 0 800 500" role="img" aria-labelledby="t d">
  <title id="t">Matematicas 1 clase 1</title>
  <desc id="d">Ilustracion abstracta de logica matematica con nodos y relaciones.</desc>
  <rect width="800" height="500" fill="#060912"/>
  <defs>
    <linearGradient id="bg1" x1="0" y1="0" x2="1" y2="1">
      <stop offset="0%" stop-color="#0f1c35"/>
      <stop offset="100%" stop-color="#09101d"/>
    </linearGradient>
  </defs>
  <circle cx="690" cy="90" r="78" fill="#16345e" opacity="0.45"/>
  <circle cx="124" cy="424" r="96" fill="#45142a" opacity="0.34"/>
  <rect x="54" y="54" width="692" height="392" rx="28" fill="url(#bg1)" stroke="#6db7ff" stroke-width="2"/>
  <rect x="88" y="140" width="258" height="210" rx="18" fill="#0b1427" stroke="#2b8bff" stroke-width="2"/>
  <g fill="#7fc3ff">
    <circle cx="138" cy="196" r="16"/>
    <circle cx="138" cy="248" r="16" fill="#ff8aa7"/>
    <circle cx="138" cy="300" r="16" fill="#d5ebff"/>
    <rect x="170" y="186" width="122" height="20" rx="10" opacity="0.9"/>
    <rect x="170" y="238" width="92" height="20" rx="10" fill="#ff8aa7" opacity="0.9"/>
    <rect x="170" y="290" width="144" height="20" rx="10" fill="#d5ebff" opacity="0.9"/>
  </g>
  <rect x="382" y="140" width="298" height="210" rx="18" fill="#0b1427" stroke="#ff6f95" stroke-width="2"/>
  <g>
    <rect x="414" y="174" width="44" height="44" rx="10" fill="#7fc3ff"/>
    <rect x="472" y="174" width="44" height="44" rx="10" fill="#ff8aa7"/>
    <rect x="530" y="174" width="44" height="44" rx="10" fill="#d5ebff"/>
    <rect x="588" y="174" width="44" height="44" rx="10" fill="#ffe19e"/>
    <rect x="414" y="236" width="44" height="44" rx="10" fill="#ff8aa7"/>
    <rect x="472" y="236" width="44" height="44" rx="10" fill="#7fc3ff"/>
    <rect x="530" y="236" width="44" height="44" rx="10" fill="#ffe19e"/>
    <rect x="588" y="236" width="44" height="44" rx="10" fill="#d5ebff"/>
    <path d="M458 196H472M516 196H530M574 196H588M458 258H472M516 258H530M574 258H588" stroke="#89c9ff" stroke-width="5" stroke-linecap="round"/>
  </g>
</svg>