<svg xmlns="http://www.w3.org/2000/svg" viewBox="0 0 800 500" role="img" aria-labelledby="t d">
  <title id="t">Curso japones N5</title>
  <desc id="d">Ilustracion japonesa con torii, sol naciente, monte y petalos.</desc>
  <defs>
    <linearGradient id="bg" x1="0" y1="0" x2="1" y2="1">
      <stop offset="0%" stop-color="#06070f"/>
      <stop offset="100%" stop-color="#1a2238"/>
    </linearGradient>
  </defs>
  <rect width="800" height="500" fill="url(#bg)"/>

  <circle cx="620" cy="130" r="90" fill="#ff4f78" opacity="0.78"/>

  <path d="M120 400L290 220L420 400Z" fill="#7fc1ff" opacity="0.42"/>
  <path d="M240 290L290 220L340 290Z" fill="#f2f8ff" opacity="0.9"/>

  <g fill="#ff5a7f">
    <rect x="500" y="210" width="20" height="165" rx="4"/>
    <rect x="610" y="210" width="20" height="165" rx="4"/>
    <rect x="470" y="200" width="190" height="18" rx="5"/>
    <rect x="490" y="178" width="150" height="16" rx="5"/>
  </g>

  <path d="M0 410C120 385 240 430 360 410C480 390 620 430 800 405V500H0Z" fill="#111a2b"/>

  <g fill="#ffd3df" opacity="0.9">
    <circle cx="190" cy="120" r="8"/>
    <circle cx="220" cy="145" r="6"/>
    <circle cx="165" cy="155" r="7"/>
    <circle cx="130" cy="110" r="5"/>
    <circle cx="95" cy="145" r="6"/>
  </g>

  <path d="M95 150C140 175 160 205 170 235" stroke="#ff9cb5" stroke-width="4" fill="none" stroke-linecap="round"/>

  <g fill="#f6fbff" opacity="0.9" font-family="'Noto Sans JP', 'Yu Gothic', sans-serif" font-size="42" font-weight="700">
    <text x="110" y="95">あ</text>
    <text x="160" y="85">い</text>
    <text x="210" y="110">う</text>
    <text x="260" y="100">え</text>
    <text x="310" y="120">お</text>
  </g>

  <g fill="#ffdae4" opacity="0.86" font-family="'Noto Sans JP', 'Yu Gothic', sans-serif" font-size="34" font-weight="700">
    <text x="525" y="165">か</text>
    <text x="565" y="155">き</text>
    <text x="605" y="175">く</text>
  </g>

  <g opacity="0.9">
    <rect x="72" y="300" width="80" height="56" rx="8" fill="#e7f3ff"/>
    <rect x="160" y="306" width="80" height="56" rx="8" fill="#ffe7ee"/>
    <path d="M92 318h40M92 332h34M92 346h30" stroke="#6eaee9" stroke-width="4" stroke-linecap="round"/>
    <path d="M180 324h40M180 338h28M180 352h36" stroke="#ef7d9f" stroke-width="4" stroke-linecap="round"/>
  </g>

  <g fill="none" stroke="#ffd5e2" stroke-width="3" stroke-linecap="round" stroke-linejoin="round" opacity="0.92">
    <path d="M690 78l10 18 20 3-14 13 3 20-19-10-19 10 3-20-14-13 20-3z"/>
    <path d="M720 126l7 12 14 2-10 9 2 14-13-7-13 7 2-14-10-9 14-2z"/>
  </g>

  <g fill="#ffd7e3" opacity="0.92" font-family="'Noto Sans JP', 'Yu Gothic', sans-serif" font-size="30" font-weight="700">
    <text x="95" y="278">さ</text>
    <text x="130" y="265">し</text>
    <text x="165" y="278">す</text>
    <text x="200" y="264">せ</text>
  </g>
</svg>
